# xmcd
#
# Track frame offsets: 
#        150
#        20743
#        44502
#        57943
#
# Disc length: 1044 seconds
#
# Revision: 1
# Processed by: cddbd v1.5.1PL0 Copyright (c) Steve Scherf et al.
# Submitted via: ExactAudioCopy v0.90b4
#
DISCID=32041204
DTITLE=RK Standard feat.Risa - missing
DYEAR=2000
DGENRE=JPop
TTITLE0=missing
TTITLE1=a voice
TTITLE2=missing (mb version)
TTITLE3=missing (for you)
EXTD=YEAR: 2000
EXTT0=
EXTT1=
EXTT2=
EXTT3=
PLAYORDER=
